<?xml version="1.0" encoding="UTF-8"?>
<svg id="Camada_1" xmlns="http://www.w3.org/2000/svg" width="965.7" height="623.5" xmlns:xlink="http://www.w3.org/1999/xlink" version="1.1" viewBox="0 0 965.7 623.5">
  <!-- Generator: Adobe Illustrator 30.4.0, SVG Export Plug-In . SVG Version: 2.1.4 Build 226)  -->
  <defs>
    <linearGradient id="Gradiente_sem_nome_51" data-name="Gradiente sem nome 51" x1="2269.1" y1="1029.2" x2="2467.8" y2="1029.2" gradientUnits="userSpaceOnUse">
      <stop offset="0" stop-color="#e2e2e2"/>
      <stop offset=".3" stop-color="#8f8e8d"/>
      <stop offset=".5" stop-color="#9e9e9d"/>
      <stop offset=".8" stop-color="#c8c7c6"/>
      <stop offset="1" stop-color="#eeeeed"/>
    </linearGradient>
    <linearGradient id="Gradiente_sem_nome_511" data-name="Gradiente sem nome 51" x1="3107.5" x2="3306.2" xlink:href="#Gradiente_sem_nome_51"/>
    <linearGradient id="Gradiente_sem_nome_512" data-name="Gradiente sem nome 51" x1="2768.4" y1="1029.2" x2="2962.4" y2="1029.2" xlink:href="#Gradiente_sem_nome_51"/>
    <linearGradient id="Gradiente_sem_nome_513" data-name="Gradiente sem nome 51" x1="2610.6" y1="1029.2" x2="2788.6" y2="1029.2" xlink:href="#Gradiente_sem_nome_51"/>
    <linearGradient id="Gradiente_sem_nome_514" data-name="Gradiente sem nome 51" x1="2445.2" y1="1029.2" x2="2631.6" y2="1029.2" xlink:href="#Gradiente_sem_nome_51"/>
    <linearGradient id="Gradiente_sem_nome_515" data-name="Gradiente sem nome 51" x1="2924.1" y1="1029.2" x2="3098.9" y2="1029.2" xlink:href="#Gradiente_sem_nome_51"/>
    <linearGradient id="Gradiente_sem_nome_516" data-name="Gradiente sem nome 51" x1="2368.5" y1="1083.1" x2="2368.5" y2="980.2" xlink:href="#Gradiente_sem_nome_51"/>
    <linearGradient id="Gradiente_sem_nome_517" data-name="Gradiente sem nome 51" x1="3206.8" y1="1083.1" x2="3206.8" y2="980.2" xlink:href="#Gradiente_sem_nome_51"/>
    <linearGradient id="Gradiente_sem_nome_518" data-name="Gradiente sem nome 51" x1="2864.5" y1="1083.1" x2="2864.5" y2="980.2" xlink:href="#Gradiente_sem_nome_51"/>
    <linearGradient id="Gradiente_sem_nome_519" data-name="Gradiente sem nome 51" x1="2698.7" y1="1083.1" x2="2698.7" y2="980.2" xlink:href="#Gradiente_sem_nome_51"/>
    <linearGradient id="Gradiente_sem_nome_5110" data-name="Gradiente sem nome 51" x1="2537.9" y1="1083.1" x2="2537.9" y2="980.2" xlink:href="#Gradiente_sem_nome_51"/>
    <linearGradient id="Gradiente_sem_nome_5111" data-name="Gradiente sem nome 51" x1="3012" y1="1083.1" x2="3012" y2="980.2" xlink:href="#Gradiente_sem_nome_51"/>
    <linearGradient id="Gradiente_sem_nome_20" data-name="Gradiente sem nome 20" x1="380.6" y1="411.8" x2="389.7" y2="-2.7" gradientUnits="userSpaceOnUse">
      <stop offset="0" stop-color="#926418"/>
      <stop offset=".2" stop-color="#9d7128"/>
      <stop offset=".5" stop-color="#ba9552"/>
      <stop offset="1" stop-color="#e9cf95"/>
      <stop offset="1" stop-color="#edd49b"/>
    </linearGradient>
    <linearGradient id="Gradiente_sem_nome_201" data-name="Gradiente sem nome 20" x1="479.2" y1="414" x2="488.2" y2="-.5" xlink:href="#Gradiente_sem_nome_20"/>
    <linearGradient id="Gradiente_sem_nome_202" data-name="Gradiente sem nome 20" x1="488.6" y1="414.2" x2="497.7" y2="-.3" xlink:href="#Gradiente_sem_nome_20"/>
    <linearGradient id="Gradiente_sem_nome_203" data-name="Gradiente sem nome 20" x1="527.8" y1="415" x2="536.9" y2=".5" xlink:href="#Gradiente_sem_nome_20"/>
    <linearGradient id="Gradiente_sem_nome_204" data-name="Gradiente sem nome 20" x1="592.9" y1="416.5" x2="601.9" y2="2" xlink:href="#Gradiente_sem_nome_20"/>
    <linearGradient id="Gradiente_sem_nome_205" data-name="Gradiente sem nome 20" x1="565.2" y1="415.9" x2="574.3" y2="1.4" xlink:href="#Gradiente_sem_nome_20"/>
    <linearGradient id="Gradiente_sem_nome_206" data-name="Gradiente sem nome 20" x1="515.6" y1="414.8" x2="524.7" y2=".3" xlink:href="#Gradiente_sem_nome_20"/>
    <linearGradient id="Gradiente_sem_nome_207" data-name="Gradiente sem nome 20" x1="469.8" y1="413.8" x2="478.9" y2="-.7" xlink:href="#Gradiente_sem_nome_20"/>
    <linearGradient id="Gradiente_sem_nome_208" data-name="Gradiente sem nome 20" x1="425.3" y1="412.8" x2="434.4" y2="-1.7" xlink:href="#Gradiente_sem_nome_20"/>
    <linearGradient id="Gradiente_sem_nome_209" data-name="Gradiente sem nome 20" x1="362.9" y1="411.4" x2="372" y2="-3.1" xlink:href="#Gradiente_sem_nome_20"/>
    <linearGradient id="Gradiente_sem_nome_5112" data-name="Gradiente sem nome 51" x1="36.1" y1="540.1" x2="36.1" y2="410.5" xlink:href="#Gradiente_sem_nome_51"/>
    <linearGradient id="Gradiente_sem_nome_5113" data-name="Gradiente sem nome 51" x1="115.4" y1="540.1" x2="115.4" y2="410.5" xlink:href="#Gradiente_sem_nome_51"/>
    <linearGradient id="Gradiente_sem_nome_5114" data-name="Gradiente sem nome 51" x1="187.2" y1="540.1" x2="187.2" y2="410.5" xlink:href="#Gradiente_sem_nome_51"/>
    <linearGradient id="Gradiente_sem_nome_5115" data-name="Gradiente sem nome 51" x1="259" y1="540.1" x2="259" y2="410.5" xlink:href="#Gradiente_sem_nome_51"/>
    <linearGradient id="Gradiente_sem_nome_5116" data-name="Gradiente sem nome 51" x1="338.2" y1="540.1" x2="338.2" y2="410.5" xlink:href="#Gradiente_sem_nome_51"/>
    <linearGradient id="Gradiente_sem_nome_5117" data-name="Gradiente sem nome 51" x1="417.5" y1="540.1" x2="417.5" y2="410.5" xlink:href="#Gradiente_sem_nome_51"/>
    <linearGradient id="Gradiente_sem_nome_5118" data-name="Gradiente sem nome 51" x1="533.1" y1="540.1" x2="533.1" y2="410.5" xlink:href="#Gradiente_sem_nome_51"/>
    <linearGradient id="Gradiente_sem_nome_5119" data-name="Gradiente sem nome 51" x1="612.4" y1="540.1" x2="612.4" y2="410.5" xlink:href="#Gradiente_sem_nome_51"/>
    <linearGradient id="Gradiente_sem_nome_5120" data-name="Gradiente sem nome 51" x1="710.4" y1="540.1" x2="710.4" y2="410.5" xlink:href="#Gradiente_sem_nome_51"/>
    <linearGradient id="Gradiente_sem_nome_5121" data-name="Gradiente sem nome 51" x1="808.4" y1="540.1" x2="808.4" y2="410.5" xlink:href="#Gradiente_sem_nome_51"/>
    <linearGradient id="Gradiente_sem_nome_5122" data-name="Gradiente sem nome 51" x1="869" y1="540.1" x2="869" y2="410.5" xlink:href="#Gradiente_sem_nome_51"/>
    <linearGradient id="Gradiente_sem_nome_5123" data-name="Gradiente sem nome 51" x1="929.6" y1="540.1" x2="929.6" y2="410.5" xlink:href="#Gradiente_sem_nome_51"/>
    <linearGradient id="Gradiente_sem_nome_28" data-name="Gradiente sem nome 28" x1="245.8" y1="620.5" x2="245.8" y2="560.7" gradientUnits="userSpaceOnUse">
      <stop offset="0" stop-color="#926418"/>
      <stop offset=".2" stop-color="#9d7128"/>
      <stop offset=".5" stop-color="#ba9552"/>
      <stop offset="1" stop-color="#e9cf95"/>
      <stop offset="1" stop-color="#edd49b"/>
    </linearGradient>
    <linearGradient id="Gradiente_sem_nome_281" data-name="Gradiente sem nome 28" x1="353.1" y1="620.5" x2="353.1" y2="560.7" xlink:href="#Gradiente_sem_nome_28"/>
    <linearGradient id="Gradiente_sem_nome_282" data-name="Gradiente sem nome 28" x1="450" y1="620.5" x2="450" y2="560.7" xlink:href="#Gradiente_sem_nome_28"/>
    <linearGradient id="Gradiente_sem_nome_283" data-name="Gradiente sem nome 28" x1="542.5" y1="620.5" x2="542.5" y2="560.7" xlink:href="#Gradiente_sem_nome_28"/>
    <linearGradient id="Gradiente_sem_nome_284" data-name="Gradiente sem nome 28" x1="639.4" y1="620.5" x2="639.4" y2="560.7" xlink:href="#Gradiente_sem_nome_28"/>
    <linearGradient id="Gradiente_sem_nome_285" data-name="Gradiente sem nome 28" x1="731.1" y1="620.5" x2="731.1" y2="560.7" xlink:href="#Gradiente_sem_nome_28"/>
    <linearGradient id="Gradiente_sem_nome_2010" data-name="Gradiente sem nome 20" x1="-1496.3" y1="376.5" x2="-1489.3" y2="57.5" xlink:href="#Gradiente_sem_nome_20"/>
    <linearGradient id="Gradiente_sem_nome_2011" data-name="Gradiente sem nome 20" x1="-1420.5" y1="378.2" x2="-1413.5" y2="59.2" xlink:href="#Gradiente_sem_nome_20"/>
    <linearGradient id="Gradiente_sem_nome_2012" data-name="Gradiente sem nome 20" x1="-1413.2" y1="378.3" x2="-1406.2" y2="59.4" xlink:href="#Gradiente_sem_nome_20"/>
    <linearGradient id="Gradiente_sem_nome_2013" data-name="Gradiente sem nome 20" x1="-1383" y1="379" x2="-1376.1" y2="60" xlink:href="#Gradiente_sem_nome_20"/>
    <linearGradient id="Gradiente_sem_nome_2014" data-name="Gradiente sem nome 20" x1="-1333" y1="380.1" x2="-1326" y2="61.1" xlink:href="#Gradiente_sem_nome_20"/>
    <linearGradient id="Gradiente_sem_nome_2015" data-name="Gradiente sem nome 20" x1="-1354.3" y1="379.6" x2="-1347.3" y2="60.7" xlink:href="#Gradiente_sem_nome_20"/>
    <linearGradient id="Gradiente_sem_nome_2016" data-name="Gradiente sem nome 20" x1="-1392.4" y1="378.8" x2="-1385.4" y2="59.8" xlink:href="#Gradiente_sem_nome_20"/>
    <linearGradient id="Gradiente_sem_nome_2017" data-name="Gradiente sem nome 20" x1="-1427.7" y1="378" x2="-1420.7" y2="59" xlink:href="#Gradiente_sem_nome_20"/>
    <linearGradient id="Gradiente_sem_nome_2018" data-name="Gradiente sem nome 20" x1="-1461.9" y1="377.3" x2="-1455" y2="58.3" xlink:href="#Gradiente_sem_nome_20"/>
    <linearGradient id="Gradiente_sem_nome_2019" data-name="Gradiente sem nome 20" x1="-1510" y1="376.2" x2="-1503" y2="57.2" xlink:href="#Gradiente_sem_nome_20"/>
    <linearGradient id="Gradiente_sem_nome_5124" data-name="Gradiente sem nome 51" x1="-1215.9" y1="240.5" x2="-1215.9" y2="140.8" xlink:href="#Gradiente_sem_nome_51"/>
    <linearGradient id="Gradiente_sem_nome_5125" data-name="Gradiente sem nome 51" x1="-1157.7" y1="240.5" x2="-1157.7" y2="140.8" xlink:href="#Gradiente_sem_nome_51"/>
    <linearGradient id="Gradiente_sem_nome_5126" data-name="Gradiente sem nome 51" x1="-1105.1" y1="240.5" x2="-1105.1" y2="140.8" xlink:href="#Gradiente_sem_nome_51"/>
    <linearGradient id="Gradiente_sem_nome_5127" data-name="Gradiente sem nome 51" x1="-1052.6" y1="240.5" x2="-1052.6" y2="140.8" xlink:href="#Gradiente_sem_nome_51"/>
    <linearGradient id="Gradiente_sem_nome_5128" data-name="Gradiente sem nome 51" x1="-994.3" y1="240.5" x2="-994.3" y2="140.8" xlink:href="#Gradiente_sem_nome_51"/>
    <linearGradient id="Gradiente_sem_nome_5129" data-name="Gradiente sem nome 51" x1="-936" y1="240.5" x2="-936" y2="140.8" xlink:href="#Gradiente_sem_nome_51"/>
    <linearGradient id="Gradiente_sem_nome_5130" data-name="Gradiente sem nome 51" x1="-847.1" y1="240.5" x2="-847.1" y2="140.8" xlink:href="#Gradiente_sem_nome_51"/>
    <linearGradient id="Gradiente_sem_nome_5131" data-name="Gradiente sem nome 51" x1="-788.8" y1="240.5" x2="-788.8" y2="140.8" xlink:href="#Gradiente_sem_nome_51"/>
    <linearGradient id="Gradiente_sem_nome_5132" data-name="Gradiente sem nome 51" x1="-716.1" y1="240.5" x2="-716.1" y2="140.8" xlink:href="#Gradiente_sem_nome_51"/>
    <linearGradient id="Gradiente_sem_nome_5133" data-name="Gradiente sem nome 51" x1="-643.3" y1="240.5" x2="-643.3" y2="140.8" xlink:href="#Gradiente_sem_nome_51"/>
    <linearGradient id="Gradiente_sem_nome_5134" data-name="Gradiente sem nome 51" x1="-599.4" y1="240.5" x2="-599.4" y2="140.8" xlink:href="#Gradiente_sem_nome_51"/>
    <linearGradient id="Gradiente_sem_nome_5135" data-name="Gradiente sem nome 51" x1="-555.5" y1="240.5" x2="-555.5" y2="140.8" xlink:href="#Gradiente_sem_nome_51"/>
    <linearGradient id="Gradiente_sem_nome_286" data-name="Gradiente sem nome 28" x1="-1068.1" y1="302.4" x2="-1068.1" y2="256.3" xlink:href="#Gradiente_sem_nome_28"/>
    <linearGradient id="Gradiente_sem_nome_287" data-name="Gradiente sem nome 28" x1="-985.6" y1="302.4" x2="-985.6" y2="256.3" xlink:href="#Gradiente_sem_nome_28"/>
    <linearGradient id="Gradiente_sem_nome_288" data-name="Gradiente sem nome 28" x1="-911" y1="302.4" x2="-911" y2="256.3" xlink:href="#Gradiente_sem_nome_28"/>
    <linearGradient id="Gradiente_sem_nome_289" data-name="Gradiente sem nome 28" x1="-839.8" y1="302.4" x2="-839.8" y2="256.3" xlink:href="#Gradiente_sem_nome_28"/>
    <linearGradient id="Gradiente_sem_nome_2810" data-name="Gradiente sem nome 28" x1="-765.2" y1="302.4" x2="-765.2" y2="256.3" xlink:href="#Gradiente_sem_nome_28"/>
    <linearGradient id="Gradiente_sem_nome_2811" data-name="Gradiente sem nome 28" x1="-694.7" y1="302.4" x2="-694.7" y2="256.3" xlink:href="#Gradiente_sem_nome_28"/>
  </defs>
  <g>
    <path d="M2420.2,1049.1c10.8,0,20.6-6,25.5-15.6l1.6-3.1,16-31.3,3.4-6.6c3.6-7.1-1.5-15.6-9.5-15.6h-134.5l-53.4,104.5h34.8l42.1-82.3h76.5c2.7,0,4.4,2.8,3.2,5.2l-10.8,21.2c-1.5,3-4.6,4.9-7.9,4.9h-53.9l-6.1,11.9,6.9,6.8,32.5,32.3h42.7l-5.2-5.2-23.1-23-4.2-4.2h23.7Z" style="fill: url(#Gradiente_sem_nome_51);"/>
    <path d="M3295.4,977h-134.5l-53.4,104.5h34.8l42.1-82.3h76.5c2.7,0,4.4,2.8,3.2,5.2l-10.8,21.2c-1.5,3-4.6,4.9-7.9,4.9h-53.9l-6.1,11.9,6.9,6.8,32.5,32.3h42.7l-5.2-5.2-23.1-23-4.2-4.2h23.7c10.8,0,20.6-6,25.5-15.6l1.6-3.1,16-31.3,3.4-6.6c3.6-7.1-1.5-15.6-9.5-15.6Z" style="fill: url(#Gradiente_sem_nome_511);"/>
    <path d="M2927.5,977l-36.9,72.2c-3.2,6.2-9.5,10.1-16.5,10.1h-55.9c-7.4,0-12.2-7.8-8.8-14.4l34.7-67.9h-34.8l-38.8,76c-6.7,13.1,2.8,28.6,17.5,28.6h98.7c13.7,0,26.2-7.7,32.4-19.8l43.2-84.7h-34.8Z" style="fill: url(#Gradiente_sem_nome_512);"/>
    <path d="M2649.7,1051.2l20.7-40.5c3.6-7.1,10.9-11.5,18.9-11.5h87.9l11.3-22.2h-104.8c-19,0-36.4,10.7-45.1,27.6l-25.5,50-.7,1.4c-6,11.7,2.5,25.6,15.7,25.6h107l11.3-22.2h-91.8c-4.2,0-6.8-4.4-5-8.1Z" style="fill: url(#Gradiente_sem_nome_513);"/>
    <polygon points="2588.1 1040.3 2599.4 1018.1 2512.4 1018.1 2522.1 999.1 2620.3 999.1 2631.6 977 2533.4 977 2498.6 977 2456.5 1059.3 2456.5 1059.3 2445.2 1081.5 2480 1081.5 2578.2 1081.5 2589.5 1059.3 2491.4 1059.3 2501.1 1040.3 2588.1 1040.3" style="fill: url(#Gradiente_sem_nome_514);"/>
    <path d="M3073.9,977h-34.8l-114.9,104.5h34.8l20.9-19h80.6l3.6,19h34.8l-19.5-104.5h-5.4ZM3004.3,1040.3l44.5-40.5,7.6,40.5h-52.1Z" style="fill: url(#Gradiente_sem_nome_515);"/>
  </g>
  <g>
    <path d="M2386.5,1080.1l-38.3-38,5.2-10.2h53.1c3.9,0,7.4-2.2,9.2-5.6l10.8-21.2c.8-1.6.7-3.4-.2-4.9-.9-1.5-2.5-2.4-4.2-2.4h-77.4l-42.1,82.3h-31.7l51.9-101.7h133.7c3.3,0,6.2,1.7,7.9,4.4,1.7,2.8,1.8,6.2.4,9.1l-20.9,41c-4.7,9.2-14,14.8-24.2,14.8h-27.1l32.5,32.3h-38.7Z" style="fill: url(#Gradiente_sem_nome_516);"/>
    <path d="M3224.8,1080.1l-38.3-38,5.2-10.2h53.1c3.9,0,7.4-2.2,9.2-5.6l10.8-21.2c.8-1.6.7-3.4-.2-4.9-.9-1.5-2.5-2.4-4.2-2.4h-77.4l-42.1,82.3h-31.7l51.9-101.7h133.7c3.3,0,6.2,1.7,7.9,4.4s1.8,6.2.4,9.1l-20.9,41c-4.7,9.2-14,14.8-24.2,14.8h-27.1l32.5,32.3h-38.7Z" style="fill: url(#Gradiente_sem_nome_517);"/>
    <path d="M2787.6,1080.1c-6.4,0-12.2-3.3-15.5-8.7-3.3-5.5-3.6-12.1-.7-17.8l38.4-75.2h31.7l-33.6,65.9c-1.8,3.5-1.6,7.7.4,11,2.1,3.4,5.7,5.4,9.6,5.4h55.9c7.5,0,14.3-4.2,17.8-10.9l36.5-71.5h31.7l-42.2,82.7c-6,11.8-17.9,19.1-31.1,19.1h-98.7Z" style="fill: url(#Gradiente_sem_nome_518);"/>
    <path d="M2627.7,1080.1c-5.7,0-10.8-2.9-13.8-7.7s-3.2-10.8-.6-15.8l26.2-51.3c8.5-16.6,25.2-26.8,43.8-26.8h102.5l-9.9,19.4h-87.1c-8.5,0-16.2,4.7-20.1,12.3l-20.7,40.5c-1.1,2.2-1,4.7.3,6.8,1.3,2.1,3.5,3.3,5.9,3.3h89.5l-9.9,19.4h-106.2Z" style="fill: url(#Gradiente_sem_nome_519);"/>
    <polygon points="2447.1 1080.1 2456.9 1060.7 2457.3 1059.9 2499 978.4 2628.8 978.4 2619 997.7 2520.8 997.7 2509.6 1019.5 2596.7 1019.5 2586.8 1038.9 2499.8 1038.9 2488.6 1060.7 2586.8 1060.7 2576.9 1080.1 2447.1 1080.1" style="fill: url(#Gradiente_sem_nome_5110);"/>
    <path d="M3064.7,1080.1l-3.6-19h-82.3l-20.9,19h-30.7l111.9-101.7h38.5l19,101.7h-32ZM3000.2,1041.7h57.4l-8.3-44.6-49.1,44.6Z" style="fill: url(#Gradiente_sem_nome_5111);"/>
  </g>
  <g>
    <g>
      <path d="M339.3,175.3c-4,2.8-16,8.4-16,8.4,0,0-2,12.7,9.2,23.6,8.1,7.9,31.2,13.6,46.4,4.4,15.2-9.2,13.2-22.8,10-29.6-3.2-6.8-10.4-14.4-10.4-14.4,0,0,13.2,2.8,26,12.4,12.8,9.6,25.2,21.2,42.8,8,17.6-13.2,21.2-46,13.6-66.1-7.6-20-19.2-25.6-8.8-36,0,0-16.8-2.8-31.6,0-14.8,2.8-46.4,14.8-49.6,16.4s-8.9,4-9.6,6.8c-1.3,5.2-2.4,13.2-6.8,16.4-4,2.9-39.1,28.3-45.4,32.9-.7.5-1.1,1.2-1.1,2.1-.2,2.2-.1,6.5,2.5,7.1,3.6.8,20.4-5.6,26.8-6.4,6.4-.8,16.8-1.6,16.8-1.6,0,0-10.8,12.8-14.8,15.6ZM370.1,157.7c.4-2,2.8-8,4.4-11.6,1.6-3.6.7-10.4,2.8-14.4,2.2-4,5.2-6.4,10.8-9.2,5.6-2.8,17.6-4.4,26.4-4.8,6.8-.3,15.2-2,18.8-2.8.4,0,.7.5.4.7-1.7,1.4-4.9,3.9-8.7,6.1-5.6,3.2-9.9,9.3-14,14-3.9,4.4-8.8,6.4-14,7.2-1.6.3-3.9,1-5.8,1.9-2.4,1.1-4.5,2.7-6.4,4.5-2.3,2.3-5.8,5.8-8.3,8-2.7,2.4-4.8,2.7-6,2.6-.5,0-.8-.5-.7-.9l.2-1.2Z" style="fill: url(#Gradiente_sem_nome_20);"/>
      <path d="M388,78c2.8-1.5,5.4-3.1,7.3-4.4,5.6-4,21-20.9,31.8-30.2,1.9-1.6,9-6.5,9-6.5,19.8-12.3,46.2-19.8,75.1-19.8s54.9,7.4,74.7,19.6c1.2.8,2.5-.9,1.4-1.9-20.4-18.6-52.8-30.5-89.3-30.5-59.8,0-108.6,32.1-111.7,72.6,0,.9.9,1.6,1.8,1.1Z" style="fill: url(#Gradiente_sem_nome_201);"/>
      <path d="M492.1,123.4c-1.3,1.3,0,3.4,1.7,2.8,4.8-1.7,10.8-4,14.8-6.3,7.7-4.4,14.5-14.9,12.5-26.6-1.9-11.7-16-21.5-29.1-20.1-12.8,1.4-20.7,9.8-22.2,17.6-1.2,6.1,2,12.6,3.5,15.3.3.6,1.2.6,1.6,0,1.6-2.2,5.1-7,7.9-9.6,3.7-3.4,11.2-6.7,17.8-1.7,6.6,5.1,1.9,16-.8,20.1-1.4,2.1-4.7,5.5-7.8,8.3Z" style="fill: url(#Gradiente_sem_nome_202);"/>
      <path d="M422.3,70c-2.3,2.1.2,5.7,3,4.4,23.4-11.5,51.3-18,81.3-17.6,57.7.9,119.4,34.4,141.3,80-8.3-56.5-69.4-102.1-130.3-102.1-37.5,0-71.4,13.6-95.3,35.3Z" style="fill: url(#Gradiente_sem_nome_203);"/>
      <path d="M588.8,97.5c-16-8.8-32.7-14.4-49.3-17,1.3,3,2.3,6.1,2.8,9.3,1.1,6.6.7,13.2-1,19.5,6.3,1.3,12.9,3.2,20,6.1,53.5,21.8,88.1,83,92.2,134.3,15.4-57.2-11.4-122.9-64.7-152.3Z" style="fill: url(#Gradiente_sem_nome_204);"/>
      <path d="M549.6,130.2c-3.6-1.4-8.2-2.7-11.7-3.6-2.4-.6-5,.2-6.7,2.1-2.4,2.7-4.5,3.8-9.1,5.5-6.6,2.4-11,2.6-12.1,3.1,16.4,6.6,49.6,23.4,67.2,48.3,26.8,37.8,29,69.8,19.8,107.2-9,36.9-55.9,63.1-57.3,63.9,1.4-.4,45.5-11.9,69-42.2,23.9-30.9,28.7-79,10.3-119-18.4-40-62.8-62.8-69.4-65.4Z" style="fill: url(#Gradiente_sem_nome_205);"/>
      <path d="M574.2,284.1c12.7-41.3-2.8-77.7-12.7-89.8-9.9-12.1-28.6-22.6-28.6-22.6,0,0,30.3,32.5,18.2,74.9-12.1,42.4-67,80.6-76,90.9-10.9,12.4-15.1,27.4-16.5,35.8-1,6-2.2,18.2-2.2,18.2,0,0,8.8-20.9,33.1-35.3,24.2-14.3,72.2-30.9,84.8-72.2Z" style="fill: url(#Gradiente_sem_nome_206);"/>
      <path d="M500.4,282.4c8.3-7.2,40.8-36.9,28.6-80.4-12.1-43.5-35.8-52.9-35.8-52.9,0,0,19.8,23.1,11,57.8-8.8,34.7-45.7,57.3-65,82.1-19.3,24.8-27.3,39.6-25.3,66.1,2.2,29.2,20.4,54.5,20.4,54.5,0,0-3.3-36.9,7.7-65,11-28.1,50.1-55.1,58.4-62.3Z" style="fill: url(#Gradiente_sem_nome_207);"/>
      <path d="M469.5,230.1c12-12.3,18.7-35.3,16.5-49.6-2.2-14.3-6.6-22.6-6.6-22.6,0,0,1.7,26.4-17.1,45.7-18.7,19.3-47.9,37.5-62.3,51.8-14.3,14.3-33.1,39.1-28.1,71.6,5,32.5,22.6,49.6,22.6,49.6,0,0-14.3-38.6,2.2-71.1,16.5-32.5,62.1-64.6,72.7-75.5Z" style="fill: url(#Gradiente_sem_nome_208);"/>
      <path d="M401.4,226.1c3.1-2.4,1.7-6.5-2.6-4.9-12.3,4.6-27.8,11.2-37.1,12.1-16.4,1.7-30.7-8.6-30.7-8.6,0,0-.3,15,8,28.2,6.5,10.3,23.7,22.3,23.7,22.3,0,0-1.7-4.9,3.1-17.8,3-8,22.3-21.1,35.6-31.4Z" style="fill: url(#Gradiente_sem_nome_209);"/>
    </g>
    <g>
      <path d="M42.1,494.9h27.7v44.9h-29.8v-44.9h-7.6v44.9H2.4v-134.9h67.3v74.9s0,14.5-27.7,15.1ZM40,479.8v-59.8h-7.6v59.8h7.6Z" style="fill: url(#Gradiente_sem_nome_5112);"/>
      <path d="M149,449.8v45.1h-37.3v30h22.4v14.9h-22.4c-30,0-30-14.9-30-14.9v-90h37.6c29.8,0,29.8,14.9,29.8,14.9ZM119.2,479.8v-30h-7.6v30h7.6Z" style="fill: url(#Gradiente_sem_nome_5113);"/>
      <path d="M213.4,449.8h-22.4v75.1h22.4v14.9h-22.4c-30,0-30-14.9-30-14.9v-90h52.4v14.9Z" style="fill: url(#Gradiente_sem_nome_5114);"/>
      <path d="M225.3,524.9v-90h30v90h7.6v-90h29.8v90s0,14.9-29.8,14.9h-7.6c-30,0-30-14.9-30-14.9Z" style="fill: url(#Gradiente_sem_nome_5115);"/>
      <path d="M304.6,524.9v-45.1s0-14.9,30-14.9h7.6v-15.1h-22.7v-14.9h22.7c29.8,0,29.8,14.9,29.8,14.9v90h-37.3c-30,0-30-14.9-30-14.9ZM334.6,479.8v45.1h7.6v-45.1h-7.6Z" style="fill: url(#Gradiente_sem_nome_5116);"/>
      <path d="M451.2,464.9h-29.8v-15.1h-7.6v90h-30v-104.9h37.6c29.8,0,29.8,14.9,29.8,14.9v15.1Z" style="fill: url(#Gradiente_sem_nome_5117);"/>
      <path d="M529.4,464.9v60h7.6v-104.9h-22.7v-15.1h52.4v134.9h-37.3c-30,0-30-14.9-30-14.9v-60h30Z" style="fill: url(#Gradiente_sem_nome_5118);"/>
      <path d="M578.7,524.9v-45.1s0-14.9,30-14.9h7.6v-15.1h-22.7v-14.9h22.7c29.8,0,29.8,14.9,29.8,14.9v90h-37.3c-30,0-30-14.9-30-14.9ZM608.7,479.8v45.1h7.6v-45.1h-7.6Z" style="fill: url(#Gradiente_sem_nome_5119);"/>
      <path d="M725.3,449.8v-14.9h37.6v104.9h-30v-90h-7.6v90h-29.8v-90h-7.6v90h-30v-104.9h37.6c29.8,0,29.8,14.9,29.8,14.9Z" style="fill: url(#Gradiente_sem_nome_5120);"/>
      <path d="M774.8,524.9v-45.1s0-14.9,30-14.9h7.6v-15.1h-22.7v-14.9h22.7c29.8,0,29.8,14.9,29.8,14.9v90h-37.3c-30,0-30-14.9-30-14.9ZM804.8,479.8v45.1h7.6v-45.1h-7.6Z" style="fill: url(#Gradiente_sem_nome_5121);"/>
      <path d="M884,434.9v104.9h-30v-104.9h30Z" style="fill: url(#Gradiente_sem_nome_5122);"/>
      <path d="M933.5,464.9v-15.1h-7.6v30h7.6c29.8,0,29.8,15.1,29.8,15.1v44.9h-67.3v-30h30v15.1h7.6v-30h-7.6c-30,0-30-15.1-30-15.1v-44.9h67.3v30h-29.8Z" style="fill: url(#Gradiente_sem_nome_5123);"/>
    </g>
    <g>
      <g>
        <path d="M226.1,571.1c4,0,5.5.8,6.7,5.2l10.3,32.9c.2.4.5.6.9.6h.8c.5,0,.8-.2,1-.6l17.7-32.9c2.2-4.4,3.7-5.2,7.9-5.2h7.6c4.7,0,5.8,1.8,5.2,7.1l-4.5,39.4c-.1,1-.7,1.5-1.7,1.5h-7.2c-1,0-1.5-.5-1.3-1.5l4.1-35.8c0-.5,0-.7-.4-.7h-.6c-.5,0-.8.1-1,.5l-16.7,30.7c-2.6,5.1-5.1,6.7-9.5,6.7h-3.9c-4.5,0-6.5-1.6-8-6.7l-9.9-30.7c-.2-.4-.3-.5-.8-.5h-.6c-.4,0-.6.2-.7.7l-4.1,35.8c-.1,1-.7,1.5-1.7,1.5h-7.2c-1,0-1.5-.5-1.3-1.5l4.5-39.4c.6-5.4,2-7.1,6.8-7.1h7.7Z" style="fill: url(#Gradiente_sem_nome_28);"/>
        <path d="M366.4,571.1c13.9,0,18.6,4.9,17.1,18.1l-1.3,11.8c-1.5,13.2-7.3,18.1-21.3,18.1h-21.1c-13.9,0-18.6-5-17.1-18.1l1.3-11.8c1.5-13.1,7.3-18.1,21.3-18.1h21.1ZM333.2,600.3c-.8,7.2.9,9.2,8.1,9.2h20.4c7.1,0,9.3-2,10.2-9.2l1.2-10.3c.8-7.2-.9-9.2-8.1-9.2h-20.4c-7.1,0-9.3,2-10.2,9.2l-1.2,10.3Z" style="fill: url(#Gradiente_sem_nome_281);"/>
        <path d="M477.3,571.1c1,0,1.5.5,1.4,1.5l-.8,6.7c-.1,1-.7,1.5-1.7,1.5h-21.6l-4.2,36.8c-.1,1-.6,1.5-1.6,1.5h-7.5c-1,0-1.5-.5-1.3-1.5l4.2-36.8h-21.6c-1,0-1.5-.5-1.3-1.5l.8-6.7c.1-1,.7-1.5,1.7-1.5h53.6Z" style="fill: url(#Gradiente_sem_nome_282);"/>
        <path d="M555.8,571.1c13.9,0,18.6,4.9,17.1,18.1l-1.3,11.8c-1.5,13.2-7.3,18.1-21.3,18.1h-21.1c-13.9,0-18.6-5-17.1-18.1l1.3-11.8c1.5-13.1,7.3-18.1,21.3-18.1h21.1ZM522.6,600.3c-.8,7.2.9,9.2,8.1,9.2h20.4c7.1,0,9.3-2,10.2-9.2l1.2-10.3c.8-7.2-.9-9.2-8.1-9.2h-20.4c-7.1,0-9.3,2-10.2,9.2l-1.2,10.3Z" style="fill: url(#Gradiente_sem_nome_283);"/>
        <path d="M654.8,571.1c10.2,0,14.2,4.6,13.1,14.1l-.5,4c-.9,8-4.6,12.6-11.5,14l9.8,14.2c.5.7,0,1.8-1.1,1.8h-9.2c-1.1,0-1.4-.3-1.8-.9l-9.3-13.9h-21.7l-1.5,13.3c-.1,1-.7,1.5-1.7,1.5h-7.4c-1,0-1.5-.5-1.3-1.5l5.1-44.4c.2-1.4.9-2.1,2.3-2.1h36.8ZM650,595.3c4.7,0,6.6-1.6,7-5.8l.3-2.9c.5-4.2-1.1-5.9-5.7-5.9h-25.4c-.6,0-.9.2-1,.8l-1.6,13.8h26.3Z" style="fill: url(#Gradiente_sem_nome_284);"/>
        <path d="M757.3,571.1c1,0,1.5.5,1.3,1.5l-.8,6.7c-.1,1-.7,1.5-1.7,1.5h-34.4c-2.5,0-3.8,1.2-4.1,3.7l-.3,2.3c-.3,2.5.7,3.5,3.2,3.5h25.6c7.7,0,11.5,4.4,10.6,12.1l-.6,5.6c-.8,7.1-5.5,11.2-13.4,11.2h-38c-1,0-1.5-.5-1.3-1.5l.8-6.7c.1-1,.7-1.5,1.7-1.5h36c2.4,0,3.8-1.2,4.1-3.7l.3-2.8c.3-2.5-.6-3.5-3.2-3.5h-25.7c-7.7,0-11.4-4.4-10.6-12.1l.6-5.1c.8-7.1,5.5-11.2,13.3-11.2h36.3Z" style="fill: url(#Gradiente_sem_nome_285);"/>
      </g>
      <g>
        <rect x="796.8" y="592.1" width="148.8" height="6.1" style="fill: #c39043;"/>
        <rect x="20.1" y="592.1" width="148.8" height="6.1" style="fill: #c39043;"/>
      </g>
    </g>
  </g>
  <g>
    <g>
      <path d="M-1528.1,194.5c-3.1,2.2-12.3,6.5-12.3,6.5,0,0-1.5,9.8,7.1,18.2,6.3,6.1,24,10.5,35.7,3.4,11.7-7.1,10.2-17.6,7.7-22.8-2.5-5.2-8-11.1-8-11.1,0,0,10.2,2.2,20,9.6,9.9,7.4,19.4,16.3,33,6.2,13.6-10.2,16.3-35.4,10.5-50.8-5.9-15.4-14.8-19.7-6.8-27.7,0,0-12.9-2.2-24.3,0-11.4,2.2-35.7,11.4-38.2,12.6s-6.9,3.1-7.4,5.2c-1,4-1.8,10.2-5.2,12.6-3.1,2.2-30.1,21.8-35,25.3-.5.4-.8.9-.9,1.6-.1,1.7,0,5,2,5.4,2.8.6,15.7-4.3,20.6-4.9,4.9-.6,12.9-1.2,12.9-1.2,0,0-8.3,9.9-11.4,12ZM-1504.4,180.9c.3-1.5,2.2-6.2,3.4-8.9,1.2-2.8.5-8,2.2-11.1,1.7-3.1,4-4.9,8.3-7.1,4.3-2.2,13.6-3.4,20.3-3.7,5.2-.2,11.7-1.6,14.4-2.2.3,0,.5.3.3.6-1.3,1.1-3.8,3-6.7,4.7-4.3,2.5-7.6,7.2-10.8,10.8-3,3.4-6.8,4.9-10.8,5.5-1.3.2-3,.8-4.4,1.5-1.8.9-3.5,2-4.9,3.5-1.8,1.8-4.5,4.4-6.4,6.2-2.1,1.9-3.7,2.1-4.6,2-.4,0-.6-.4-.5-.7l.2-.9Z" style="fill: url(#Gradiente_sem_nome_2010);"/>
      <path d="M-1490.6,119.7c2.1-1.2,4.2-2.4,5.6-3.4,4.3-3.1,16.2-16.1,24.5-23.2,1.4-1.2,6.9-5,6.9-5,15.3-9.5,35.5-15.3,57.8-15.3s42.3,5.7,57.5,15.1c.9.6,1.9-.7,1.1-1.5-15.7-14.3-40.7-23.5-68.8-23.5-46,0-83.5,24.7-85.9,55.8,0,.7.7,1.2,1.4.9Z" style="fill: url(#Gradiente_sem_nome_2011);"/>
      <path d="M-1410.6,154.6c-1,1,0,2.6,1.3,2.2,3.7-1.3,8.3-3.1,11.4-4.9,5.9-3.4,11.1-11.4,9.6-20.5-1.5-9-12.3-16.6-22.4-15.5-9.9,1.1-15.9,7.5-17.1,13.6-.9,4.7,1.5,9.7,2.7,11.8.3.5.9.5,1.2,0,1.2-1.7,3.9-5.4,6.1-7.4,2.9-2.6,8.6-5.2,13.7-1.3,5.1,3.9,1.5,12.3-.6,15.5-1.1,1.6-3.6,4.2-6,6.4Z" style="fill: url(#Gradiente_sem_nome_2012);"/>
      <path d="M-1464.3,113.4c-1.8,1.6.2,4.4,2.3,3.4,18-8.9,39.5-13.9,62.6-13.5,44.4.7,91.9,26.5,108.7,61.6-6.3-43.5-53.4-78.5-100.3-78.5-28.9,0-54.9,10.4-73.3,27.1Z" style="fill: url(#Gradiente_sem_nome_2013);"/>
      <path d="M-1336.1,134.6c-12.3-6.8-25.1-11.1-37.9-13.1,1,2.3,1.7,4.7,2.1,7.2.8,5,.5,10.2-.8,15,4.9,1,9.9,2.5,15.4,4.7,41.2,16.7,67.8,63.9,70.9,103.4,11.9-44-8.8-94.6-49.8-117.2Z" style="fill: url(#Gradiente_sem_nome_2014);"/>
      <path d="M-1366.3,159.8c-2.8-1.1-6.3-2.1-9-2.7-1.9-.5-3.9.2-5.1,1.6-1.9,2.1-3.5,2.9-7,4.2-5.1,1.8-8.4,2-9.3,2.4,12.6,5.1,38.2,18,51.7,37.2,20.6,29.1,22.3,53.7,15.3,82.5-7,28.4-43,48.6-44.1,49.2,1.1-.3,35-9.1,53.1-32.5,18.4-23.7,22.1-60.8,7.9-91.6-14.1-30.8-48.3-48.3-53.4-50.3Z" style="fill: url(#Gradiente_sem_nome_2015);"/>
      <path d="M-1347.4,278.2c9.8-31.8-2.1-59.8-9.8-69.1-7.6-9.3-22-17.4-22-17.4,0,0,23.3,25,14,57.7-9.3,32.6-51.6,62-58.5,70-8.4,9.6-11.6,21.1-12.7,27.6-.8,4.6-1.7,14-1.7,14,0,0,6.8-16.1,25.4-27.1,18.7-11,55.5-23.7,65.3-55.5Z" style="fill: url(#Gradiente_sem_nome_2016);"/>
      <path d="M-1404.2,276.9c6.4-5.5,31.4-28.4,22-61.9-9.3-33.5-27.6-40.7-27.6-40.7,0,0,15.3,17.8,8.5,44.5-6.8,26.7-35.2,44.1-50,63.2-14.8,19.1-21,30.5-19.5,50.9,1.7,22.5,15.7,42,15.7,42,0,0-2.5-28.4,5.9-50,8.5-21.6,38.6-42.4,44.9-47.9Z" style="fill: url(#Gradiente_sem_nome_2017);"/>
      <path d="M-1427.9,236.7c9.3-9.5,14.4-27.1,12.7-38.2-1.7-11-5.1-17.4-5.1-17.4,0,0,1.3,20.4-13.1,35.2-14.4,14.8-36.9,28.8-47.9,39.9-11,11-25.4,30.1-21.6,55.1,3.8,25,17.4,38.2,17.4,38.2,0,0-11-29.7,1.7-54.7,12.7-25,47.8-49.7,56-58.1Z" style="fill: url(#Gradiente_sem_nome_2018);"/>
      <path d="M-1480.4,233.6c2.4-1.9,1.3-5-2-3.8-9.5,3.5-21.4,8.6-28.5,9.3-12.6,1.3-23.6-6.6-23.6-6.6,0,0-.3,11.5,6.2,21.7,5,7.9,18.2,17.2,18.2,17.2,0,0-1.3-3.8,2.4-13.7,2.3-6.2,17.1-16.2,27.4-24.2Z" style="fill: url(#Gradiente_sem_nome_2019);"/>
    </g>
    <g>
      <g>
        <path d="M-1211.3,205.7h21.3v34.5h-22.9v-34.5h-5.8v34.5h-23.1v-103.8h51.8v57.6s0,11.1-21.3,11.6ZM-1212.9,194.1v-46h-5.8v46h5.8Z" style="fill: url(#Gradiente_sem_nome_5124);"/>
        <path d="M-1131.7,171v34.7h-28.7v23.1h17.3v11.5h-17.3c-23.1,0-23.1-11.5-23.1-11.5v-69.3h28.9c22.9,0,22.9,11.5,22.9,11.5ZM-1154.7,194.1v-23.1h-5.8v23.1h5.8Z" style="fill: url(#Gradiente_sem_nome_5125);"/>
        <path d="M-1084.9,171h-17.3v57.8h17.3v11.5h-17.3c-23.1,0-23.1-11.5-23.1-11.5v-69.3h40.4v11.5Z" style="fill: url(#Gradiente_sem_nome_5126);"/>
        <path d="M-1078.5,228.8v-69.3h23.1v69.3h5.8v-69.3h22.9v69.3s0,11.5-22.9,11.5h-5.8c-23.1,0-23.1-11.5-23.1-11.5Z" style="fill: url(#Gradiente_sem_nome_5127);"/>
        <path d="M-1020.2,228.8v-34.7s0-11.5,23.1-11.5h5.8v-11.6h-17.4v-11.5h17.4c22.9,0,22.9,11.5,22.9,11.5v69.3h-28.7c-23.1,0-23.1-11.5-23.1-11.5ZM-997.1,194.1v34.7h5.8v-34.7h-5.8Z" style="fill: url(#Gradiente_sem_nome_5128);"/>
        <path d="M-910.1,182.7h-22.9v-11.6h-5.8v69.3h-23.1v-80.7h28.9c22.9,0,22.9,11.5,22.9,11.5v11.6Z" style="fill: url(#Gradiente_sem_nome_5129);"/>
        <path d="M-849.9,182.7v46.2h5.8v-80.7h-17.4v-11.6h40.4v103.8h-28.7c-23.1,0-23.1-11.5-23.1-11.5v-46.2h23.1Z" style="fill: url(#Gradiente_sem_nome_5130);"/>
        <path d="M-814.7,228.8v-34.7s0-11.5,23.1-11.5h5.8v-11.6h-17.4v-11.5h17.4c22.9,0,22.9,11.5,22.9,11.5v69.3h-28.7c-23.1,0-23.1-11.5-23.1-11.5ZM-791.6,194.1v34.7h5.8v-34.7h-5.8Z" style="fill: url(#Gradiente_sem_nome_5131);"/>
        <path d="M-704.6,171v-11.5h28.9v80.7h-23.1v-69.3h-5.8v69.3h-22.9v-69.3h-5.8v69.3h-23.1v-80.7h28.9c22.9,0,22.9,11.5,22.9,11.5Z" style="fill: url(#Gradiente_sem_nome_5132);"/>
        <path d="M-669.2,228.8v-34.7s0-11.5,23.1-11.5h5.8v-11.6h-17.4v-11.5h17.4c22.9,0,22.9,11.5,22.9,11.5v69.3h-28.7c-23.1,0-23.1-11.5-23.1-11.5ZM-646.2,194.1v34.7h5.8v-34.7h-5.8Z" style="fill: url(#Gradiente_sem_nome_5133);"/>
        <path d="M-587.9,159.6v80.7h-23.1v-80.7h23.1Z" style="fill: url(#Gradiente_sem_nome_5134);"/>
        <path d="M-552.5,182.7v-11.6h-5.8v23.1h5.8c22.9,0,22.9,11.6,22.9,11.6v34.5h-51.8v-23.1h23.1v11.6h5.8v-23.1h-5.8c-23.1,0-23.1-11.6-23.1-11.6v-34.5h51.8v23.1h-22.9Z" style="fill: url(#Gradiente_sem_nome_5135);"/>
      </g>
      <g>
        <g>
          <path d="M-1083.3,264.4c3.1,0,4.2.6,5.2,4l7.9,25.3c.1.3.4.5.7.5h.6c.4,0,.7-.2.8-.5l13.6-25.3c1.7-3.4,2.9-4,6.1-4h5.9c3.6,0,4.5,1.4,4,5.5l-3.4,30.3c0,.8-.6,1.2-1.3,1.2h-5.5c-.7,0-1.1-.4-1-1.2l3.1-27.5c0-.4,0-.5-.3-.5h-.5c-.4,0-.6.1-.8.4l-12.9,23.6c-2,4-3.9,5.2-7.3,5.2h-3c-3.4,0-5-1.2-6.2-5.2l-7.6-23.6c-.1-.3-.3-.4-.6-.4h-.5c-.3,0-.5.2-.5.5l-3.1,27.5c0,.8-.5,1.2-1.3,1.2h-5.5c-.8,0-1.1-.4-1-1.2l3.4-30.3c.5-4.2,1.6-5.5,5.2-5.5h6Z" style="fill: url(#Gradiente_sem_nome_286);"/>
          <path d="M-975.3,264.4c10.7,0,14.3,3.8,13.2,13.9l-1,9.1c-1.2,10.1-5.6,13.9-16.4,13.9h-16.3c-10.7,0-14.3-3.9-13.2-13.9l1-9.1c1.1-10.1,5.6-13.9,16.4-13.9h16.3ZM-1000.9,286.8c-.6,5.5.7,7.1,6.2,7.1h15.7c5.5,0,7.2-1.5,7.8-7.1l.9-7.9c.6-5.5-.7-7.1-6.2-7.1h-15.7c-5.5,0-7.2,1.5-7.8,7.1l-.9,7.9Z" style="fill: url(#Gradiente_sem_nome_287);"/>
          <path d="M-890,264.4c.8,0,1.2.4,1.1,1.2l-.6,5.2c0,.8-.6,1.2-1.3,1.2h-16.6l-3.2,28.3c0,.8-.4,1.2-1.2,1.2h-5.8c-.7,0-1.1-.4-1-1.2l3.2-28.3h-16.6c-.7,0-1.1-.4-1-1.2l.6-5.2c0-.8.6-1.2,1.3-1.2h41.3Z" style="fill: url(#Gradiente_sem_nome_288);"/>
          <path d="M-829.6,264.4c10.7,0,14.3,3.8,13.2,13.9l-1,9.1c-1.2,10.1-5.6,13.9-16.4,13.9h-16.3c-10.7,0-14.3-3.9-13.2-13.9l1-9.1c1.1-10.1,5.6-13.9,16.4-13.9h16.3ZM-855.1,286.8c-.6,5.5.7,7.1,6.2,7.1h15.7c5.5,0,7.2-1.5,7.8-7.1l.9-7.9c.6-5.5-.7-7.1-6.2-7.1h-15.7c-5.5,0-7.2,1.5-7.8,7.1l-.9,7.9Z" style="fill: url(#Gradiente_sem_nome_289);"/>
          <path d="M-753.4,264.4c7.9,0,10.9,3.5,10.1,10.8l-.3,3.1c-.7,6.1-3.5,9.7-8.9,10.8l7.6,10.9c.4.5,0,1.4-.8,1.4h-7.1c-.8,0-1.1-.2-1.4-.7l-7.2-10.7h-16.7l-1.2,10.2c0,.8-.5,1.2-1.3,1.2h-5.7c-.8,0-1.1-.4-1-1.2l3.9-34.2c.1-1.1.7-1.6,1.8-1.6h28.3ZM-757.1,283c3.6,0,5.1-1.3,5.4-4.4l.3-2.2c.4-3.2-.9-4.5-4.4-4.5h-19.5c-.5,0-.7.2-.8.6l-1.2,10.6h20.2Z" style="fill: url(#Gradiente_sem_nome_2810);"/>
          <path d="M-674.6,264.4c.7,0,1.1.4,1,1.2l-.6,5.1c0,.7-.6,1.2-1.3,1.2h-26.4c-1.9,0-2.9.9-3.1,2.9l-.2,1.8c-.2,1.9.5,2.7,2.5,2.7h19.7c5.9,0,8.9,3.4,8.2,9.3l-.5,4.3c-.6,5.4-4.3,8.6-10.3,8.6h-29.2c-.8,0-1.1-.4-1-1.2l.6-5.1c0-.7.5-1.2,1.3-1.2h27.7c1.8,0,2.9-.9,3.1-2.9l.2-2.2c.2-1.9-.5-2.7-2.4-2.7h-19.8c-5.9,0-8.8-3.4-8.1-9.3l.4-3.9c.6-5.4,4.2-8.6,10.3-8.6h28Z" style="fill: url(#Gradiente_sem_nome_2811);"/>
        </g>
        <g>
          <rect x="-644.1" y="280.5" width="114.5" height="4.7" style="fill: #c39043;"/>
          <rect x="-1241.8" y="280.5" width="114.5" height="4.7" style="fill: #c39043;"/>
        </g>
      </g>
    </g>
  </g>
  <metadata>
    <sfw xmlns="http://ns.adobe.com/SaveForWeb/1.0/">
      <slices/>
      <sliceSourceBounds x="-8142" y="-8141" width="16383" height="16383" bottomLeftOrigin="true"/>
    </sfw>
  </metadata>
</svg>